<svg xmlns="http://www.w3.org/2000/svg" viewBox="0 0 100 100"><style type="text/css">  
	.st0{fill:#00969B;}
	.st1{fill:#00B6BD;}
	.st2{fill:#00B6BD;stroke:#00B6BD;stroke-width:0.75;stroke-miterlimit:10;}
</style><polygon class="st0" points="50 0 50 8.1 91.9 8.1 91.9 91.9 50 91.9 50 100 100 100 100 0 "/><polygon class="st1" points="8.1 91.9 8.1 8.1 50 8.1 50 0 0 0 0 100 50 100 50 91.9 "/><path class="st1" d="M41.2 56.1l-9.6-26.4c-1.1 2.5-1.7 5.3-1.7 8.2C29.8 45.9 34.4 52.8 41.2 56.1z"/><path class="st1" d="M50.4 39.6l-6.1 17.6c1.8 0.5 3.7 0.8 5.7 0.8 2.4 0 4.6-0.4 6.7-1.1 -0.1-0.1-0.1-0.2-0.1-0.3L50.4 39.6z"/><path class="st1" d="M39.8 26.6c1.1-0.1 1.2 1.5 0.1 1.7 0 0-1.1 0.1-2.3 0.2L45 50.3 49.4 37l-3.1-8.6c-1.1-0.1-2.1-0.2-2.1-0.2 -1.1-0.1-1-1.7 0.1-1.7 0 0 3.3 0.3 5.3 0.3 2.1 0 5.4-0.3 5.4-0.3 1.1-0.1 1.2 1.5 0.1 1.7 0 0-1.1 0.1-2.3 0.2l7.3 21.7 2-6.7c1-2.6 1.5-4.8 1.5-6.5 0-2.5-0.9-4.2-1.7-5.6 -1-1.7-2-3.1-2-4.7 0-1.9 1.4-3.6 3.4-3.6 0.1 0 0.2 0 0.3 0 -3.6-3.3-8.4-5.3-13.6-5.3 -7.1 0-13.3 3.6-16.9 9.1 0.5 0 0.9 0 1.3 0C36.5 26.8 39.8 26.6 39.8 26.6z"/><path class="st1" d="M60.2 55.3c6-3.5 10-10 10-17.5 0-3.5-0.9-6.8-2.5-9.7 0.1 0.6 0.1 1.3 0.1 2.1 0 2-0.4 4.4-1.5 7.2L60.2 55.3z"/><path class="st2" d="M20.5 64.9h3v7h7.6v-7h3v16.5h-3v-6.9h-7.6v6.9h-3V64.9z"/><path class="st2" d="M40 64.9h9.9v2.6H43v4.3h5.6v2.6H43v4.4h7.3v2.6H40V64.9z"/><path class="st2" d="M55.1 64.9h3v13.9h7.1v2.6H55.1V64.9z"/><path class="st2" d="M69.4 64.9h6.4c3.1 0 5.3 2.2 5.3 5.4s-2.2 5.4-5.3 5.4h-3.4v5.7h-3V64.9zM75.2 73.1c1.7 0 2.8-1.1 2.8-2.8 0-1.7-1-2.8-2.7-2.8h-2.9v5.6H75.2z"/></svg>